<svg width="17" height="19" viewBox="0 0 17 19" fill="none" xmlns="http://www.w3.org/2000/svg">
<path d="M1.83333 18.3333C1.32917 18.3333 0.897569 18.1538 0.538542 17.7948C0.179514 17.4358 0 17.0042 0 16.5V3.66667C0 3.1625 0.179514 2.7309 0.538542 2.37188C0.897569 2.01285 1.32917 1.83333 1.83333 1.83333H2.75V0H4.58333V1.83333H11.9167V0H13.75V1.83333H14.6667C15.1708 1.83333 15.6024 2.01285 15.9615 2.37188C16.3205 2.7309 16.5 3.1625 16.5 3.66667V16.5C16.5 17.0042 16.3205 17.4358 15.9615 17.7948C15.6024 18.1538 15.1708 18.3333 14.6667 18.3333H1.83333ZM1.83333 16.5H14.6667V7.33333H1.83333V16.5ZM1.83333 5.5H14.6667V3.66667H1.83333V5.5ZM1.83333 5.5V3.66667V5.5ZM8.25 11C7.99028 11 7.77257 10.9122 7.59688 10.7365C7.42118 10.5608 7.33333 10.3431 7.33333 10.0833C7.33333 9.82361 7.42118 9.6059 7.59688 9.43021C7.77257 9.25451 7.99028 9.16667 8.25 9.16667C8.50972 9.16667 8.72743 9.25451 8.90312 9.43021C9.07882 9.6059 9.16667 9.82361 9.16667 10.0833C9.16667 10.3431 9.07882 10.5608 8.90312 10.7365C8.72743 10.9122 8.50972 11 8.25 11ZM4.58333 11C4.32361 11 4.1059 10.9122 3.93021 10.7365C3.75451 10.5608 3.66667 10.3431 3.66667 10.0833C3.66667 9.82361 3.75451 9.6059 3.93021 9.43021C4.1059 9.25451 4.32361 9.16667 4.58333 9.16667C4.84306 9.16667 5.06076 9.25451 5.23646 9.43021C5.41215 9.6059 5.5 9.82361 5.5 10.0833C5.5 10.3431 5.41215 10.5608 5.23646 10.7365C5.06076 10.9122 4.84306 11 4.58333 11ZM11.9167 11C11.6569 11 11.4392 10.9122 11.2635 10.7365C11.0878 10.5608 11 10.3431 11 10.0833C11 9.82361 11.0878 9.6059 11.2635 9.43021C11.4392 9.25451 11.6569 9.16667 11.9167 9.16667C12.1764 9.16667 12.3941 9.25451 12.5698 9.43021C12.7455 9.6059 12.8333 9.82361 12.8333 10.0833C12.8333 10.3431 12.7455 10.5608 12.5698 10.7365C12.3941 10.9122 12.1764 11 11.9167 11ZM8.25 14.6667C7.99028 14.6667 7.77257 14.5788 7.59688 14.4031C7.42118 14.2274 7.33333 14.0097 7.33333 13.75C7.33333 13.4903 7.42118 13.2726 7.59688 13.0969C7.77257 12.9212 7.99028 12.8333 8.25 12.8333C8.50972 12.8333 8.72743 12.9212 8.90312 13.0969C9.07882 13.2726 9.16667 13.4903 9.16667 13.75C9.16667 14.0097 9.07882 14.2274 8.90312 14.4031C8.72743 14.5788 8.50972 14.6667 8.25 14.6667ZM4.58333 14.6667C4.32361 14.6667 4.1059 14.5788 3.93021 14.4031C3.75451 14.2274 3.66667 14.0097 3.66667 13.75C3.66667 13.4903 3.75451 13.2726 3.93021 13.0969C4.1059 12.9212 4.32361 12.8333 4.58333 12.8333C4.84306 12.8333 5.06076 12.9212 5.23646 13.0969C5.41215 13.2726 5.5 13.4903 5.5 13.75C5.5 14.0097 5.41215 14.2274 5.23646 14.4031C5.06076 14.5788 4.84306 14.6667 4.58333 14.6667ZM11.9167 14.6667C11.6569 14.6667 11.4392 14.5788 11.2635 14.4031C11.0878 14.2274 11 14.0097 11 13.75C11 13.4903 11.0878 13.2726 11.2635 13.0969C11.4392 12.9212 11.6569 12.8333 11.9167 12.8333C12.1764 12.8333 12.3941 12.9212 12.5698 13.0969C12.7455 13.2726 12.8333 13.4903 12.8333 13.75C12.8333 14.0097 12.7455 14.2274 12.5698 14.4031C12.3941 14.5788 12.1764 14.6667 11.9167 14.6667Z" fill="#F4C54E"/>
</svg>
