<svg xmlns="http://www.w3.org/2000/svg" viewBox="0 0 120 120" fill="none">
  <!-- Bánh Mousse — soft round cake topped with little spheres -->
  <g stroke="#2b1a0f" stroke-width="2.5" stroke-linecap="round" stroke-linejoin="round">
    <!-- sphere toppings -->
    <circle cx="46" cy="42" r="7" fill="#f5c842"/>
    <circle cx="62" cy="38" r="8" fill="#fff5ee"/>
    <circle cx="77" cy="44" r="6" fill="#f5c842"/>
    <!-- mousse layers -->
    <path d="M28 52h64v14c0 4-2 6-6 6H34c-4 0-6-2-6-6V52z" fill="#fff5ee"/>
    <path d="M28 72h64v12c0 5-3 8-8 8H36c-5 0-8-3-8-8V72z" fill="#f5e6d3"/>
    <path d="M28 72h64" stroke="#c47a2b"/>
    <!-- plate -->
    <path d="M22 96h76"/>
    <!-- mint leaves -->
    <path d="M60 28c4-4 9-4 12-2-3 4-8 5-12 2z" fill="#f5c842" stroke="#c47a2b" stroke-width="2"/>
  </g>
  <g stroke="#c47a2b" stroke-width="2" stroke-linecap="round">
    <path d="M26 34l0 6M23 37l6 0"/>
  </g>
</svg>
