<svg width="18" height="20" viewBox="0 0 18 20" fill="none" xmlns="http://www.w3.org/2000/svg">
<path d="M1 20V18H3V15H2C1.45 15 0.979167 14.8042 0.5875 14.4125C0.195833 14.0208 0 13.55 0 13V11C0 10.45 0.195833 9.97917 0.5875 9.5875C0.979167 9.19583 1.45 9 2 9H3V6H1V4H3.35C3.76667 2.83333 4.4875 1.875 5.5125 1.125C6.5375 0.375 7.7 0 9 0C10.3 0 11.4625 0.375 12.4875 1.125C13.5125 1.875 14.2333 2.83333 14.65 4H17V6H15V9H16C16.55 9 17.0208 9.19583 17.4125 9.5875C17.8042 9.97917 18 10.45 18 11V13C18 13.55 17.8042 14.0208 17.4125 14.4125C17.0208 14.8042 16.55 15 16 15H15V18H17V20H1ZM5.525 4H12.475C12.125 3.4 11.6458 2.91667 11.0375 2.55C10.4292 2.18333 9.75 2 9 2C8.25 2 7.57083 2.18333 6.9625 2.55C6.35417 2.91667 5.875 3.4 5.525 4ZM5 18H13V13H16V11H13V6H5V11H2V13H5V18ZM9 15.5C9.96667 15.5 10.7917 15.1583 11.475 14.475C12.1583 13.7917 12.5 12.9667 12.5 12C12.5 11.0333 12.1583 10.2083 11.475 9.525C10.7917 8.84167 9.96667 8.5 9 8.5C8.03333 8.5 7.20833 8.84167 6.525 9.525C5.84167 10.2083 5.5 11.0333 5.5 12C5.5 12.9667 5.84167 13.7917 6.525 14.475C7.20833 15.1583 8.03333 15.5 9 15.5ZM9 13.5C8.58333 13.5 8.22917 13.3542 7.9375 13.0625C7.64583 12.7708 7.5 12.4167 7.5 12C7.5 11.5833 7.64583 11.2292 7.9375 10.9375C8.22917 10.6458 8.58333 10.5 9 10.5C9.41667 10.5 9.77083 10.6458 10.0625 10.9375C10.3542 11.2292 10.5 11.5833 10.5 12C10.5 12.4167 10.3542 12.7708 10.0625 13.0625C9.77083 13.3542 9.41667 13.5 9 13.5Z" fill="#D1D5DB"/>
</svg>
