<svg width="15" height="17" viewBox="0 0 15 17" fill="none" xmlns="http://www.w3.org/2000/svg">
<path d="M0.833333 16.6667C0.597222 16.6667 0.399306 16.5868 0.239583 16.4271C0.0798611 16.2674 0 16.0694 0 15.8333V11.6667C0 11.2083 0.163194 10.816 0.489583 10.4896C0.815972 10.1632 1.20833 10 1.66667 10V6.66667C1.66667 6.20833 1.82986 5.81597 2.15625 5.48958C2.48264 5.16319 2.875 5 3.33333 5H6.66667V3.79167C6.41667 3.625 6.21528 3.42361 6.0625 3.1875C5.90972 2.95139 5.83333 2.66667 5.83333 2.33333C5.83333 2.125 5.875 1.92014 5.95833 1.71875C6.04167 1.51736 6.16667 1.33333 6.33333 1.16667L7.5 0L8.66667 1.16667C8.83333 1.33333 8.95833 1.51736 9.04167 1.71875C9.125 1.92014 9.16667 2.125 9.16667 2.33333C9.16667 2.66667 9.09028 2.95139 8.9375 3.1875C8.78472 3.42361 8.58333 3.625 8.33333 3.79167V5H11.6667C12.125 5 12.5174 5.16319 12.8438 5.48958C13.1701 5.81597 13.3333 6.20833 13.3333 6.66667V10C13.7917 10 14.184 10.1632 14.5104 10.4896C14.8368 10.816 15 11.2083 15 11.6667V15.8333C15 16.0694 14.9201 16.2674 14.7604 16.4271C14.6007 16.5868 14.4028 16.6667 14.1667 16.6667H0.833333ZM3.33333 10H11.6667V6.66667H3.33333V10ZM1.66667 15H13.3333V11.6667H1.66667V15ZM3.33333 10H11.6667H3.33333ZM1.66667 15H13.3333H1.66667ZM13.3333 10H1.66667H13.3333Z" fill="#5A3923"/>
</svg>
