<svg width="19" height="12" viewBox="0 0 19 12" fill="none" xmlns="http://www.w3.org/2000/svg">
<path d="M15.9167 9.95833C16.1528 10.0833 16.3611 10.0556 16.5417 9.875C16.7222 9.69444 16.75 9.48611 16.625 9.25L15.4167 7L14.5417 9.25L15.9167 9.95833ZM11.75 9.16667H12.75L14.75 4.20833C14.7917 4.09722 14.7812 4.00347 14.7188 3.92708C14.6562 3.85069 14.5833 3.79167 14.5 3.75L12.8333 3.08333C12.7083 3.04167 12.5868 3.05556 12.4688 3.125C12.3507 3.19444 12.2778 3.29167 12.25 3.41667L11.75 9.16667ZM5.58333 9.16667H6.58333L6.08333 3.41667C6.05556 3.26389 5.98264 3.15972 5.86458 3.10417C5.74653 3.04861 5.625 3.04167 5.5 3.08333L3.83333 3.75C3.72222 3.79167 3.64236 3.85069 3.59375 3.92708C3.54514 4.00347 3.54167 4.09722 3.58333 4.20833L5.58333 9.16667ZM2.41667 9.95833L3.79167 9.25L2.91667 7L1.70833 9.25C1.58333 9.48611 1.61111 9.69444 1.79167 9.875C1.97222 10.0556 2.18056 10.0833 2.41667 9.95833ZM8.25 9.16667H10.0833L10.7083 2.125C10.7361 2 10.7049 1.89236 10.6146 1.80208C10.5243 1.71181 10.4167 1.66667 10.2917 1.66667H8.04167C7.93056 1.66667 7.82986 1.71181 7.73958 1.80208C7.64931 1.89236 7.61111 2 7.625 2.125L8.25 9.16667ZM2.04167 11.6667C1.45833 11.6667 0.972222 11.4479 0.583333 11.0104C0.194444 10.5729 0 10.0556 0 9.45833C0 9.29167 0.0243056 9.12847 0.0729167 8.96875C0.121528 8.80903 0.180556 8.65278 0.25 8.5L2.08333 5C1.88889 4.44444 1.89583 3.89583 2.10417 3.35417C2.3125 2.8125 2.68056 2.43056 3.20833 2.20833L4.875 1.54167C5.06944 1.47222 5.26389 1.42361 5.45833 1.39583C5.65278 1.36806 5.84722 1.375 6.04167 1.41667C6.23611 1.01389 6.50694 0.677083 6.85417 0.40625C7.20139 0.135417 7.59722 0 8.04167 0H10.2917C10.7361 0 11.1319 0.135417 11.4792 0.40625C11.8264 0.677083 12.0972 1.01389 12.2917 1.41667C12.4861 1.38889 12.6806 1.38542 12.875 1.40625C13.0694 1.42708 13.2639 1.47222 13.4583 1.54167L15.125 2.20833C15.6806 2.43056 16.0694 2.8125 16.2917 3.35417C16.5139 3.89583 16.5 4.43056 16.25 4.95833L18.0833 8.45833C18.1667 8.61111 18.2292 8.77083 18.2708 8.9375C18.3125 9.10417 18.3333 9.27778 18.3333 9.45833C18.3333 10.0833 18.1215 10.6076 17.6979 11.0312C17.2743 11.4549 16.75 11.6667 16.125 11.6667C15.9722 11.6667 15.8194 11.6493 15.6667 11.6146C15.5139 11.5799 15.3611 11.5278 15.2083 11.4583L13.9167 10.8333H4.375L3.20833 11.4583C3.02778 11.5556 2.83681 11.6146 2.63542 11.6354C2.43403 11.6562 2.23611 11.6667 2.04167 11.6667Z" fill="#5A3923"/>
</svg>
