<svg width="30" height="22" viewBox="0 0 30 22" fill="none" xmlns="http://www.w3.org/2000/svg">
<path d="M7.33333 21.3333C5.31111 21.3333 3.58333 20.6333 2.15 19.2333C0.716667 17.8333 0 16.1222 0 14.1C0 12.3667 0.522222 10.8222 1.56667 9.46667C2.61111 8.11111 3.97778 7.24444 5.66667 6.86667C6.22222 4.82222 7.33333 3.16667 9 1.9C10.6667 0.633333 12.5556 0 14.6667 0C17.2667 0 19.4722 0.905556 21.2833 2.71667C23.0944 4.52778 24 6.73333 24 9.33333C25.5333 9.51111 26.8056 10.1722 27.8167 11.3167C28.8278 12.4611 29.3333 13.8 29.3333 15.3333C29.3333 17 28.75 18.4167 27.5833 19.5833C26.4167 20.75 25 21.3333 23.3333 21.3333H16C15.2667 21.3333 14.6389 21.0722 14.1167 20.55C13.5944 20.0278 13.3333 19.4 13.3333 18.6667V11.8L11.2 13.8667L9.33333 12L14.6667 6.66667L20 12L18.1333 13.8667L16 11.8V18.6667H23.3333C24.2667 18.6667 25.0556 18.3444 25.7 17.7C26.3444 17.0556 26.6667 16.2667 26.6667 15.3333C26.6667 14.4 26.3444 13.6111 25.7 12.9667C25.0556 12.3222 24.2667 12 23.3333 12H21.3333V9.33333C21.3333 7.48889 20.6833 5.91667 19.3833 4.61667C18.0833 3.31667 16.5111 2.66667 14.6667 2.66667C12.8222 2.66667 11.25 3.31667 9.95 4.61667C8.65 5.91667 8 7.48889 8 9.33333H7.33333C6.04444 9.33333 4.94444 9.78889 4.03333 10.7C3.12222 11.6111 2.66667 12.7111 2.66667 14C2.66667 15.2889 3.12222 16.3889 4.03333 17.3C4.94444 18.2111 6.04444 18.6667 7.33333 18.6667H10.6667V21.3333H7.33333Z" fill="#807663"/>
</svg>
