<svg width="19" height="16" viewBox="0 0 19 16" fill="none" xmlns="http://www.w3.org/2000/svg">
<path d="M1.66667 10.8333C1.20833 10.8333 0.815972 10.6701 0.489583 10.3438C0.163194 10.0174 0 9.625 0 9.16667V1.66667C0 1.20833 0.163194 0.815972 0.489583 0.489583C0.815972 0.163194 1.20833 0 1.66667 0H16.6667C17.125 0 17.5174 0.163194 17.8438 0.489583C18.1701 0.815972 18.3333 1.20833 18.3333 1.66667V9.16667C18.3333 9.625 18.1701 10.0174 17.8438 10.3438C17.5174 10.6701 17.125 10.8333 16.6667 10.8333H1.66667ZM1.66667 1.66667V9.16667H16.6667V1.66667H1.66667ZM1.72917 13.75L1.66667 12.5L16.6458 11.7083L16.7083 12.9583L1.72917 13.75ZM1.66667 15.8125V14.5625H16.6667V15.8125H1.66667ZM7.70833 7.91667C8.73611 7.91667 9.72569 7.73611 10.6771 7.375C11.6285 7.01389 12.4583 6.45833 13.1667 5.70833C13.25 6.29167 13.5556 6.73611 14.0833 7.04167C14.6111 7.34722 15.1944 7.5 15.8333 7.5V3.33333C15.1944 3.33333 14.6111 3.48958 14.0833 3.80208C13.5556 4.11458 13.25 4.56944 13.1667 5.16667C12.4306 4.44444 11.5938 3.88889 10.6562 3.5C9.71875 3.11111 8.73611 2.91667 7.70833 2.91667C6.61111 2.91667 5.55556 3.10764 4.54167 3.48958C3.52778 3.87153 2.70833 4.51389 2.08333 5.41667C2.70833 6.31944 3.52778 6.96181 4.54167 7.34375C5.55556 7.72569 6.61111 7.91667 7.70833 7.91667ZM1.66667 1.66667V9.16667V1.66667Z" fill="#5A3923"/>
</svg>
