<svg width="18" height="20" viewBox="0 0 18 20" fill="none" xmlns="http://www.w3.org/2000/svg">
<path d="M0 20V18.5H2.5V17.75H1V16.25H2.5V15.5H0V14H3C3.28333 14 3.52083 14.0958 3.7125 14.2875C3.90417 14.4792 4 14.7167 4 15V16C4 16.2833 3.90417 16.5208 3.7125 16.7125C3.52083 16.9042 3.28333 17 3 17C3.28333 17 3.52083 17.0958 3.7125 17.2875C3.90417 17.4792 4 17.7167 4 18V19C4 19.2833 3.90417 19.5208 3.7125 19.7125C3.52083 19.9042 3.28333 20 3 20H0ZM0 13V10.25C0 9.96667 0.0958333 9.72917 0.2875 9.5375C0.479167 9.34583 0.716667 9.25 1 9.25H2.5V8.5H0V7H3C3.28333 7 3.52083 7.09583 3.7125 7.2875C3.90417 7.47917 4 7.71667 4 8V9.75C4 10.0333 3.90417 10.2708 3.7125 10.4625C3.52083 10.6542 3.28333 10.75 3 10.75H1.5V11.5H4V13H0ZM1.5 6V1.5H0V0H3V6H1.5ZM6 17V15H18V17H6ZM6 11V9H18V11H6ZM6 5V3H18V5H6Z" fill="#2E1503"/>
</svg>
