<svg width="17" height="15" viewBox="0 0 17 15" fill="none" xmlns="http://www.w3.org/2000/svg">
<path d="M3.33333 15C2.875 15 2.48264 14.8368 2.15625 14.5104C1.82986 14.184 1.66667 13.7917 1.66667 13.3333V6.20833C1.15278 5.90278 0.746528 5.49653 0.447917 4.98958C0.149306 4.48264 0 3.93056 0 3.33333C0 2.41667 0.326389 1.63194 0.979167 0.979167C1.63194 0.326389 2.41667 0 3.33333 0H13.3333C14.25 0 15.0347 0.326389 15.6875 0.979167C16.3403 1.63194 16.6667 2.41667 16.6667 3.33333C16.6667 3.93056 16.5174 4.48264 16.2188 4.98958C15.9201 5.49653 15.5139 5.90278 15 6.20833V13.3333C15 13.7917 14.8368 14.184 14.5104 14.5104C14.184 14.8368 13.7917 15 13.3333 15H3.33333ZM3.33333 13.3333H13.3333V5.25L14.1667 4.75C14.4167 4.59722 14.6181 4.39583 14.7708 4.14583C14.9236 3.89583 15 3.625 15 3.33333C15 2.875 14.8368 2.48264 14.5104 2.15625C14.184 1.82986 13.7917 1.66667 13.3333 1.66667H3.33333C2.875 1.66667 2.48264 1.82986 2.15625 2.15625C1.82986 2.48264 1.66667 2.875 1.66667 3.33333C1.66667 3.63889 1.73958 3.92014 1.88542 4.17708C2.03125 4.43403 2.23611 4.63889 2.5 4.79167L3.33333 5.25V13.3333ZM7.75 11.4167C7.91667 11.5694 8.11458 11.6458 8.34375 11.6458C8.57292 11.6458 8.76389 11.5694 8.91667 11.4167L11.4167 8.91667C11.5833 8.75 11.6667 8.55208 11.6667 8.32292C11.6667 8.09375 11.5833 7.90278 11.4167 7.75L8.91667 5.25C8.76389 5.08333 8.57292 5 8.34375 5C8.11458 5 7.91667 5.08333 7.75 5.25L5.25 7.75C5.09722 7.90278 5.02083 8.09375 5.02083 8.32292C5.02083 8.55208 5.09722 8.75 5.25 8.91667L7.75 11.4167ZM8.33333 9.66667L7 8.33333L8.33333 7L9.66667 8.33333L8.33333 9.66667Z" fill="#5A3923"/>
</svg>
