<svg width="15" height="19" viewBox="0 0 15 19" fill="none" xmlns="http://www.w3.org/2000/svg">
<path d="M7.54167 18.3333L3.625 10.8333C2.63889 10.875 1.78819 10.5903 1.07292 9.97917C0.357639 9.36806 0 8.54167 0 7.5C0 6.79167 0.204861 6.15278 0.614583 5.58333C1.02431 5.01389 1.54167 4.61111 2.16667 4.375C2.41667 3.11111 3.03819 2.06597 4.03125 1.23958C5.02431 0.413194 6.18056 0 7.5 0C8.81944 0 9.97569 0.413194 10.9688 1.23958C11.9618 2.06597 12.5833 3.11111 12.8333 4.375C13.4583 4.61111 13.9757 5.01389 14.3854 5.58333C14.7951 6.15278 15 6.79167 15 7.5C15 8.54167 14.6319 9.36806 13.8958 9.97917C13.1597 10.5903 12.3333 10.875 11.4167 10.8333L7.54167 18.3333ZM3.33333 9.16667C3.54167 9.16667 3.74653 9.13194 3.94792 9.0625C4.14931 8.99306 4.33333 8.875 4.5 8.70833L4.95833 8.25L5.5 8.58333C5.79167 8.77778 6.10764 8.92361 6.44792 9.02083C6.78819 9.11806 7.13889 9.16667 7.5 9.16667C7.86111 9.16667 8.21181 9.11806 8.55208 9.02083C8.89236 8.92361 9.20833 8.77778 9.5 8.58333L10.0417 8.25L10.5 8.70833C10.6667 8.875 10.8507 8.99306 11.0521 9.0625C11.2535 9.13194 11.4583 9.16667 11.6667 9.16667C12.125 9.16667 12.5174 9.00347 12.8438 8.67708C13.1701 8.35069 13.3333 7.95833 13.3333 7.5C13.3333 7.08333 13.2014 6.71875 12.9375 6.40625C12.6736 6.09375 12.3333 5.90278 11.9167 5.83333L11.2917 5.75L11.25 5.08333C11.1806 4.125 10.7847 3.31597 10.0625 2.65625C9.34028 1.99653 8.48611 1.66667 7.5 1.66667C6.51389 1.66667 5.65972 1.99653 4.9375 2.65625C4.21528 3.31597 3.81944 4.125 3.75 5.08333L3.70833 5.75L3.08333 5.875C2.66667 5.95833 2.32639 6.14583 2.0625 6.4375C1.79861 6.72917 1.66667 7.08333 1.66667 7.5C1.66667 7.95833 1.82986 8.35069 2.15625 8.67708C2.48264 9.00347 2.875 9.16667 3.33333 9.16667ZM7.54167 14.7083L9.79167 10.3333C9.45833 10.5 9.09722 10.625 8.70833 10.7083C8.31944 10.7917 7.91667 10.8333 7.5 10.8333C7.125 10.8333 6.74653 10.7917 6.36458 10.7083C5.98264 10.625 5.61111 10.5 5.25 10.3333L7.54167 14.7083Z" fill="#5A3923"/>
</svg>
