<svg width="17" height="17" viewBox="0 0 17 17" fill="none" xmlns="http://www.w3.org/2000/svg">
<path d="M8.33333 16.6875C7.18056 16.6875 6.09722 16.4688 5.08333 16.0312C4.06944 15.5938 3.1875 15 2.4375 14.25C1.6875 13.5 1.09375 12.6181 0.65625 11.6042C0.21875 10.5903 0 9.50694 0 8.35417C0 7.3125 0.201389 6.29167 0.604167 5.29167C1.00694 4.29167 1.56944 3.39931 2.29167 2.61458C3.01389 1.82986 3.88194 1.19792 4.89583 0.71875C5.90972 0.239583 7.02083 0 8.22917 0C8.52083 0 8.81944 0.0138889 9.125 0.0416667C9.43056 0.0694444 9.74306 0.118056 10.0625 0.1875C9.9375 0.8125 9.97917 1.40278 10.1875 1.95833C10.3958 2.51389 10.7083 2.97569 11.125 3.34375C11.5417 3.71181 12.0382 3.96528 12.6146 4.10417C13.191 4.24306 13.7847 4.20833 14.3958 4C14.0347 4.81944 14.0868 5.60417 14.5521 6.35417C15.0174 7.10417 15.7083 7.49306 16.625 7.52083C16.6389 7.67361 16.6493 7.81597 16.6562 7.94792C16.6632 8.07986 16.6667 8.22222 16.6667 8.375C16.6667 9.51389 16.4479 10.5868 16.0104 11.5938C15.5729 12.6007 14.9792 13.4826 14.2292 14.2396C13.4792 14.9965 12.5972 15.5938 11.5833 16.0312C10.5694 16.4688 9.48611 16.6875 8.33333 16.6875ZM7.08333 6.6875C7.43056 6.6875 7.72569 6.56597 7.96875 6.32292C8.21181 6.07986 8.33333 5.78472 8.33333 5.4375C8.33333 5.09028 8.21181 4.79514 7.96875 4.55208C7.72569 4.30903 7.43056 4.1875 7.08333 4.1875C6.73611 4.1875 6.44097 4.30903 6.19792 4.55208C5.95486 4.79514 5.83333 5.09028 5.83333 5.4375C5.83333 5.78472 5.95486 6.07986 6.19792 6.32292C6.44097 6.56597 6.73611 6.6875 7.08333 6.6875ZM5.41667 10.8542C5.76389 10.8542 6.05903 10.7326 6.30208 10.4896C6.54514 10.2465 6.66667 9.95139 6.66667 9.60417C6.66667 9.25694 6.54514 8.96181 6.30208 8.71875C6.05903 8.47569 5.76389 8.35417 5.41667 8.35417C5.06944 8.35417 4.77431 8.47569 4.53125 8.71875C4.28819 8.96181 4.16667 9.25694 4.16667 9.60417C4.16667 9.95139 4.28819 10.2465 4.53125 10.4896C4.77431 10.7326 5.06944 10.8542 5.41667 10.8542ZM10.8333 11.6875C11.0694 11.6875 11.2674 11.6076 11.4271 11.4479C11.5868 11.2882 11.6667 11.0903 11.6667 10.8542C11.6667 10.6181 11.5868 10.4201 11.4271 10.2604C11.2674 10.1007 11.0694 10.0208 10.8333 10.0208C10.5972 10.0208 10.3993 10.1007 10.2396 10.2604C10.0799 10.4201 10 10.6181 10 10.8542C10 11.0903 10.0799 11.2882 10.2396 11.4479C10.3993 11.6076 10.5972 11.6875 10.8333 11.6875ZM8.33333 15.0208C10.0278 15.0208 11.5312 14.4375 12.8438 13.2708C14.1562 12.1042 14.875 10.6181 15 8.8125C14.3056 8.50694 13.7604 8.09028 13.3646 7.5625C12.9688 7.03472 12.7014 6.44444 12.5625 5.79167C11.4931 5.63889 10.5764 5.18056 9.8125 4.41667C9.04861 3.65278 8.57639 2.73611 8.39583 1.66667C7.28472 1.63889 6.30903 1.84028 5.46875 2.27083C4.62847 2.70139 3.92708 3.25347 3.36458 3.92708C2.80208 4.60069 2.37847 5.33333 2.09375 6.125C1.80903 6.91667 1.66667 7.65972 1.66667 8.35417C1.66667 10.2014 2.31597 11.7743 3.61458 13.0729C4.91319 14.3715 6.48611 15.0208 8.33333 15.0208Z" fill="#5A3923"/>
</svg>
