<svg width="12" height="14" viewBox="0 0 12 14" fill="none" xmlns="http://www.w3.org/2000/svg">
<path d="M5.25 13.8375C3.7375 13.65 2.48438 12.9906 1.49063 11.8594C0.496875 10.7281 0 9.4 0 7.875C0 7.05 0.1625 6.25938 0.4875 5.50313C0.8125 4.74688 1.275 4.0875 1.875 3.525L2.94375 4.59375C2.46875 5.01875 2.10938 5.5125 1.86563 6.075C1.62188 6.6375 1.5 7.2375 1.5 7.875C1.5 8.975 1.85 9.94687 2.55 10.7906C3.25 11.6344 4.15 12.15 5.25 12.3375V13.8375ZM6.75 13.8375V12.3375C7.8375 12.1375 8.73438 11.6187 9.44063 10.7812C10.1469 9.94375 10.5 8.975 10.5 7.875C10.5 6.625 10.0625 5.5625 9.1875 4.6875C8.3125 3.8125 7.25 3.375 6 3.375H5.94375L6.76875 4.2L5.71875 5.25L3.09375 2.625L5.71875 0L6.76875 1.05L5.94375 1.875H6C7.675 1.875 9.09375 2.45625 10.2563 3.61875C11.4188 4.78125 12 6.2 12 7.875C12 9.3875 11.5031 10.7094 10.5094 11.8406C9.51562 12.9719 8.2625 13.6375 6.75 13.8375Z" fill="#2563EB"/>
</svg>
