<svg width="20" height="19" viewBox="0 0 20 19" fill="none" xmlns="http://www.w3.org/2000/svg">
<path d="M15.2854 6.41667L14.2771 4.21667L12.0771 3.20833L14.2771 2.2L15.2854 0L16.2938 2.2L18.4937 3.20833L16.2938 4.21667L15.2854 6.41667ZM17.1187 12.8333L16.3854 11.275L14.8271 10.5417L16.3854 9.80833L17.1187 8.25L17.8521 9.80833L19.4104 10.5417L17.8521 11.275L17.1187 12.8333ZM5.20208 18.3333L4.92708 16.1792C4.82014 16.1333 4.70556 16.0722 4.58333 15.9958C4.46111 15.9194 4.36181 15.8431 4.28542 15.7667L2.26875 16.6375L0 12.65L1.71875 11.3667C1.71875 11.2444 1.71875 11.1222 1.71875 11C1.71875 10.8778 1.71875 10.7556 1.71875 10.6333L0 9.35L2.26875 5.3625L4.28542 6.23333C4.36181 6.15694 4.46111 6.08056 4.58333 6.00417C4.70556 5.92778 4.82014 5.86667 4.92708 5.82083L5.20208 3.66667H9.78542L10.0604 5.82083C10.1674 5.86667 10.2819 5.92778 10.4042 6.00417C10.5264 6.08056 10.6257 6.15694 10.7021 6.23333L12.7188 5.3625L14.9875 9.35L13.2688 10.6333C13.2688 10.7556 13.2688 10.8778 13.2688 11C13.2688 11.1222 13.2688 11.2444 13.2688 11.3667L14.9875 12.65L12.7188 16.6375L10.7021 15.7667C10.6257 15.8431 10.5264 15.9194 10.4042 15.9958C10.2819 16.0722 10.1674 16.1333 10.0604 16.1792L9.78542 18.3333H5.20208ZM7.49375 13.75C8.25764 13.75 8.90694 13.4826 9.44167 12.9479C9.97639 12.4132 10.2437 11.7639 10.2437 11C10.2437 10.2361 9.97639 9.58681 9.44167 9.05208C8.90694 8.51736 8.25764 8.25 7.49375 8.25C6.72986 8.25 6.08056 8.51736 5.54583 9.05208C5.01111 9.58681 4.74375 10.2361 4.74375 11C4.74375 11.7639 5.01111 12.4132 5.54583 12.9479C6.08056 13.4826 6.72986 13.75 7.49375 13.75ZM6.80625 16.5H8.18125L8.36458 14.85C8.80764 14.7278 9.18576 14.5712 9.49896 14.3802C9.81215 14.1892 10.1215 13.9333 10.4271 13.6125L11.9396 14.3L12.5813 13.1542L11.2521 12.1458C11.3743 11.7944 11.4354 11.4125 11.4354 11C11.4354 10.5875 11.3743 10.2056 11.2521 9.85417L12.5813 8.84583L11.9396 7.7L10.4271 8.3875C10.1215 8.06667 9.81215 7.81076 9.49896 7.61979C9.18576 7.42882 8.80764 7.27222 8.36458 7.15L8.18125 5.5H6.80625L6.62292 7.15C6.17986 7.27222 5.80174 7.42882 5.48854 7.61979C5.17535 7.81076 4.86597 8.06667 4.56042 8.3875L3.04792 7.7L2.40625 8.84583L3.73542 9.85417C3.61319 10.2056 3.54826 10.5875 3.54063 11C3.53299 11.4125 3.59792 11.7944 3.73542 12.1458L2.40625 13.1542L3.04792 14.3L4.56042 13.6125C4.86597 13.9333 5.17535 14.1892 5.48854 14.3802C5.80174 14.5712 6.17986 14.7278 6.62292 14.85L6.80625 16.5Z" fill="#F4C54E"/>
</svg>
