<svg width="17" height="16" viewBox="0 0 17 16" fill="none" xmlns="http://www.w3.org/2000/svg">
<path d="M1.66667 12.5V14.1667V14.1667V14.1667H15V14.1667V14.1667V12.5H1.66667V12.5M1.66667 3.33333H3.5C3.43056 3.20833 3.38542 3.07639 3.36458 2.9375C3.34375 2.79861 3.33333 2.65278 3.33333 2.5C3.33333 1.80556 3.57639 1.21528 4.0625 0.729167C4.54861 0.243056 5.13889 0 5.83333 0C6.25 0 6.63542 0.107639 6.98958 0.322917C7.34375 0.538194 7.65278 0.805556 7.91667 1.125L8.33333 1.66667L8.75 1.125C9 0.791667 9.30556 0.520833 9.66667 0.3125C10.0278 0.104167 10.4167 0 10.8333 0C11.5278 0 12.1181 0.243056 12.6042 0.729167C13.0903 1.21528 13.3333 1.80556 13.3333 2.5C13.3333 2.65278 13.3229 2.79861 13.3021 2.9375C13.2812 3.07639 13.2361 3.20833 13.1667 3.33333H15C15.4583 3.33333 15.8507 3.49653 16.1771 3.82292C16.5035 4.14931 16.6667 4.54167 16.6667 5V14.1667C16.6667 14.625 16.5035 15.0174 16.1771 15.3438C15.8507 15.6701 15.4583 15.8333 15 15.8333H1.66667C1.20833 15.8333 0.815972 15.6701 0.489583 15.3438C0.163194 15.0174 0 14.625 0 14.1667V5C0 4.54167 0.163194 4.14931 0.489583 3.82292C0.815972 3.49653 1.20833 3.33333 1.66667 3.33333V3.33333M1.66667 10H15V5V5V5H10.75L12.5 7.375L11.1667 8.33333L8.33333 4.5L5.5 8.33333L4.16667 7.375L5.875 5H1.66667V5V5V10V10M5.83333 3.33333C6.06944 3.33333 6.26736 3.25347 6.42708 3.09375C6.58681 2.93403 6.66667 2.73611 6.66667 2.5C6.66667 2.26389 6.58681 2.06597 6.42708 1.90625C6.26736 1.74653 6.06944 1.66667 5.83333 1.66667C5.59722 1.66667 5.39931 1.74653 5.23958 1.90625C5.07986 2.06597 5 2.26389 5 2.5C5 2.73611 5.07986 2.93403 5.23958 3.09375C5.39931 3.25347 5.59722 3.33333 5.83333 3.33333V3.33333M10.8333 3.33333C11.0694 3.33333 11.2674 3.25347 11.4271 3.09375C11.5868 2.93403 11.6667 2.73611 11.6667 2.5C11.6667 2.26389 11.5868 2.06597 11.4271 1.90625C11.2674 1.74653 11.0694 1.66667 10.8333 1.66667C10.5972 1.66667 10.3993 1.74653 10.2396 1.90625C10.0799 2.06597 10 2.26389 10 2.5C10 2.73611 10.0799 2.93403 10.2396 3.09375C10.3993 3.25347 10.5972 3.33333 10.8333 3.33333V3.33333" fill="#775A00"/>
</svg>
