<svg width="11" height="14" viewBox="0 0 11 14" fill="none" xmlns="http://www.w3.org/2000/svg">
<path d="M0 14V0H5.525C6.60833 0 7.60833 0.333333 8.525 1C9.44167 1.66667 9.9 2.59167 9.9 3.775C9.9 4.625 9.70833 5.27917 9.325 5.7375C8.94167 6.19583 8.58333 6.525 8.25 6.725C8.66667 6.90833 9.12917 7.25 9.6375 7.75C10.1458 8.25 10.4 9 10.4 10C10.4 11.4833 9.85833 12.5208 8.775 13.1125C7.69167 13.7042 6.675 14 5.725 14H0ZM3.025 11.2H5.625C6.425 11.2 6.9125 10.9958 7.0875 10.5875C7.2625 10.1792 7.35 9.88333 7.35 9.7C7.35 9.51667 7.2625 9.22083 7.0875 8.8125C6.9125 8.40417 6.4 8.2 5.55 8.2H3.025V11.2ZM3.025 5.5H5.35C5.9 5.5 6.3 5.35833 6.55 5.075C6.8 4.79167 6.925 4.475 6.925 4.125C6.925 3.725 6.78333 3.4 6.5 3.15C6.21667 2.9 5.85 2.775 5.4 2.775H3.025V5.5Z" fill="#2E1503"/>
</svg>
