<svg width="18" height="20" viewBox="0 0 18 20" fill="none" xmlns="http://www.w3.org/2000/svg">
<path d="M1 20C0.716667 20 0.479167 19.9042 0.2875 19.7125C0.0958333 19.5208 0 19.2833 0 19V14C0 13.45 0.195833 12.9792 0.5875 12.5875C0.979167 12.1958 1.45 12 2 12V8C2 7.45 2.19583 6.97917 2.5875 6.5875C2.97917 6.19583 3.45 6 4 6H8V4.55C7.7 4.35 7.45833 4.10833 7.275 3.825C7.09167 3.54167 7 3.2 7 2.8C7 2.55 7.05 2.30417 7.15 2.0625C7.25 1.82083 7.4 1.6 7.6 1.4L9 0L10.4 1.4C10.6 1.6 10.75 1.82083 10.85 2.0625C10.95 2.30417 11 2.55 11 2.8C11 3.2 10.9083 3.54167 10.725 3.825C10.5417 4.10833 10.3 4.35 10 4.55V6H14C14.55 6 15.0208 6.19583 15.4125 6.5875C15.8042 6.97917 16 7.45 16 8V12C16.55 12 17.0208 12.1958 17.4125 12.5875C17.8042 12.9792 18 13.45 18 14V19C18 19.2833 17.9042 19.5208 17.7125 19.7125C17.5208 19.9042 17.2833 20 17 20H1ZM4 12H14V8H4V12ZM2 18H16V14H2V18ZM4 12H14H4ZM2 18H16H2ZM16 12H2H16Z" fill="#4E4635"/>
</svg>
